<svg xmlns="http://www.w3.org/2000/svg" viewBox="0 0 500 500"><g id="freepik--Floor--inject-124"><ellipse id="freepik--floor--inject-124" cx="249.99" cy="343.72" rx="246.43" ry="142.28" style="fill:#fafafa"></ellipse></g><g id="freepik--house--inject-124"><g id="freepik--house--inject-124"><g id="freepik--floor--inject-124"><path d="M413.74,299.4a1.54,1.54,0,0,0-.89-1.25L285,224.37a4.79,4.79,0,0,0-4.33,0L132.57,309.88a1.52,1.52,0,0,0-.9,1.25v7a1.53,1.53,0,0,0,.9,1.25l127.82,73.78a4.79,4.79,0,0,0,4.33,0l148.13-85.51a1.52,1.52,0,0,0,.89-1.25Z" style="fill:#E11313"></path><path d="M413.74,299.4a1.54,1.54,0,0,0-.89-1.25L285,224.37a4.79,4.79,0,0,0-4.33,0L132.57,309.88a1.52,1.52,0,0,0-.9,1.25v7a1.53,1.53,0,0,0,.9,1.25l127.82,73.78a4.79,4.79,0,0,0,4.33,0l148.13-85.51a1.52,1.52,0,0,0,.89-1.25Z" style="fill:#fff;opacity:0.4"></path><path d="M282.86,223.85a4.34,4.34,0,0,0-2.16.52L132.57,309.88a1.52,1.52,0,0,0-.9,1.25v7a1.53,1.53,0,0,0,.9,1.25l127.82,73.78a4.34,4.34,0,0,0,2.16.52V363.94Z" style="fill:#E11313;opacity:0.4"></path><path d="M412.85,298.15,285,224.37a4.79,4.79,0,0,0-4.33,0L132.57,309.88a1.32,1.32,0,0,0,0,2.5l127.82,73.78a4.79,4.79,0,0,0,4.33,0l148.13-85.51A1.32,1.32,0,0,0,412.85,298.15Z" style="fill:#E11313"></path><path d="M412.85,298.15,285,224.37a4.79,4.79,0,0,0-4.33,0L132.57,309.88a1.32,1.32,0,0,0,0,2.5l127.82,73.78a4.79,4.79,0,0,0,4.33,0l148.13-85.51A1.32,1.32,0,0,0,412.85,298.15Z" style="fill:#fff;opacity:0.6000000000000001"></path><path d="M237.39,249.37,132.57,309.88a1.32,1.32,0,0,0,0,2.5L229.1,368.1l67.65-17.2L370,308.63l-87.09-50.28Z" style="fill:#E11313;opacity:0.15"></path></g><g id="freepik--Tree--inject-124"><g id="freepik--tree--inject-124"><path d="M381.88,256.66a3.54,3.54,0,0,1,2,.35,19.61,19.61,0,0,1,3.19,2.26,6.44,6.44,0,0,0,3.54,1.52,2.84,2.84,0,0,0,2.95-2.05,2,2,0,0,1,.16-.65,1,1,0,0,1,1.12-.29,5.73,5.73,0,0,1,1.07.62c1.32.78,3,.6,4.49.38,1.27-.18,2.86-.74,2.85-2,0-.84-.73-1.45-1.3-2.05s-1-1.58-.51-2.22a1.46,1.46,0,0,1,.73-.45c1.58-.51,3.51.17,4.84-.82a2.78,2.78,0,0,0,.7-3.34,4.24,4.24,0,0,0-2.84-2.16c-1.06-.27-2.41-.4-2.8-1.42s.35-1.85,1.13-2.4a8.33,8.33,0,0,0,2.28-1.73,2.72,2.72,0,0,0,.07-2.82,3.42,3.42,0,0,0-2.38-1.63,5,5,0,0,1-1.44-.32,1,1,0,0,1-.53-1.21c.14-.26.44-.4.61-.64a1.14,1.14,0,0,0-.42-1.5,5.91,5.91,0,0,0-1.61-.62c-1.15-.38-1.74-1-1.4-2.14s2-1.12,2.47-2.28-.76-3.19-1.67-3.82a21.83,21.83,0,0,0-3-1.36,3.21,3.21,0,0,1-2.06-2.42c-.08-1.13.77-2.09,1.46-3s1.29-2.16.68-3.13-1.88-1-2.92-1.31a4.73,4.73,0,0,1-2.88-2.59c-.27-.64-.41-1.34-.74-2-1-1.91-3.64-2.75-5.65-2.51a2.29,2.29,0,0,0-1.92,1.3,3.05,3.05,0,0,0-.7,1.32c-.15.93.33,2.1-.54,2.81-1.32,1.07-3.34-.37-3.27,2a11.76,11.76,0,0,0,.35,2.7,2.71,2.71,0,0,1,.09.41,2.59,2.59,0,0,1,.06.92,2.08,2.08,0,0,1-1.32,1.43,17.31,17.31,0,0,1-3,.32,3.93,3.93,0,0,0-2.57,1.49,3.11,3.11,0,0,0-.47,2.88c.36,1,1.26,1.87.92,2.83s-1.6,1.12-2.4,1.74a3.07,3.07,0,0,0-.91,3.07,6.77,6.77,0,0,1,.3,1.58c-.09,1.64-2.14,2.36-3,3.74a5.94,5.94,0,0,0-.37,4,4.31,4.31,0,0,0,.52,1.81c.33.52.85.87,1.21,1.36a2.67,2.67,0,0,1,.2,2.66,4.64,4.64,0,0,1-2.08,1.86,2.93,2.93,0,0,0-1.46,2.35c-.11,1.8.92,2.2,2.32,2.81,1.12.48,1,.62,1,1.95,0,2.7.9,3.46,3.56,3a6.54,6.54,0,0,1,2.56-.21c1,.31.67.56.7,1.41.07,2.17,2.6,1.56,3.67.63C378.66,258.06,380.21,256.82,381.88,256.66Z" style="fill:#E11313"></path><path d="M381.88,256.66a3.54,3.54,0,0,1,2,.35,19.61,19.61,0,0,1,3.19,2.26,6.44,6.44,0,0,0,3.54,1.52,2.84,2.84,0,0,0,2.95-2.05,2,2,0,0,1,.16-.65,1,1,0,0,1,1.12-.29,5.73,5.73,0,0,1,1.07.62c1.32.78,3,.6,4.49.38,1.27-.18,2.86-.74,2.85-2,0-.84-.73-1.45-1.3-2.05s-1-1.58-.51-2.22a1.46,1.46,0,0,1,.73-.45c1.58-.51,3.51.17,4.84-.82a2.78,2.78,0,0,0,.7-3.34,4.24,4.24,0,0,0-2.84-2.16c-1.06-.27-2.41-.4-2.8-1.42s.35-1.85,1.13-2.4a8.33,8.33,0,0,0,2.28-1.73,2.72,2.72,0,0,0,.07-2.82,3.42,3.42,0,0,0-2.38-1.63,5,5,0,0,1-1.44-.32,1,1,0,0,1-.53-1.21c.14-.26.44-.4.61-.64a1.14,1.14,0,0,0-.42-1.5,5.91,5.91,0,0,0-1.61-.62c-1.15-.38-1.74-1-1.4-2.14s2-1.12,2.47-2.28-.76-3.19-1.67-3.82a21.83,21.83,0,0,0-3-1.36,3.21,3.21,0,0,1-2.06-2.42c-.08-1.13.77-2.09,1.46-3s1.29-2.16.68-3.13-1.88-1-2.92-1.31a4.73,4.73,0,0,1-2.88-2.59c-.27-.64-.41-1.34-.74-2-1-1.91-3.64-2.75-5.65-2.51a2.29,2.29,0,0,0-1.92,1.3,3.05,3.05,0,0,0-.7,1.32c-.15.93.33,2.1-.54,2.81-1.32,1.07-3.34-.37-3.27,2a11.76,11.76,0,0,0,.35,2.7,2.71,2.71,0,0,1,.09.41,2.59,2.59,0,0,1,.06.92,2.08,2.08,0,0,1-1.32,1.43,17.31,17.31,0,0,1-3,.32,3.93,3.93,0,0,0-2.57,1.49,3.11,3.11,0,0,0-.47,2.88c.36,1,1.26,1.87.92,2.83s-1.6,1.12-2.4,1.74a3.07,3.07,0,0,0-.91,3.07,6.77,6.77,0,0,1,.3,1.58c-.09,1.64-2.14,2.36-3,3.74a5.94,5.94,0,0,0-.37,4,4.31,4.31,0,0,0,.52,1.81c.33.52.85.87,1.21,1.36a2.67,2.67,0,0,1,.2,2.66,4.64,4.64,0,0,1-2.08,1.86,2.93,2.93,0,0,0-1.46,2.35c-.11,1.8.92,2.2,2.32,2.81,1.12.48,1,.62,1,1.95,0,2.7.9,3.46,3.56,3a6.54,6.54,0,0,1,2.56-.21c1,.31.67.56.7,1.41.07,2.17,2.6,1.56,3.67.63C378.66,258.06,380.21,256.82,381.88,256.66Z" style="opacity:0.2"></path><path d="M403,256.06a3.5,3.5,0,0,0-.46-.65c-.21-.23-.44-.45-.65-.67a3.19,3.19,0,0,1-.67-1.1,1.59,1.59,0,0,1-.06-.3,1.1,1.1,0,0,1,.07-.57.73.73,0,0,1,.15-.25,1.46,1.46,0,0,1,.73-.45,3.5,3.5,0,0,1,.56-.13l.17,0,.43,0h.15c.47,0,.94,0,1.4,0h.26l.28,0,.3,0,.24,0h0a13.54,13.54,0,0,0-2.14-.33,6.09,6.09,0,0,0-4.63,1.83,4.12,4.12,0,0,1,.93,2.78c-3,.81-6-3.22-8.83-2,.17,1.45,0,3.41-1.41,3.73a2.31,2.31,0,0,1-2.19-1.05c-.51-.68-.83-1.5-1.35-2.18a4.62,4.62,0,0,0-6.12-.89c-.77.57-1.75,1.42-2.52.86s-.33-2.24-1.25-2.7c-.61-.31-1.47.18-2-.28a1.31,1.31,0,0,1-.35-.75c-.36-1.53-.68-3.31.29-4.56s2.68-1.79,2.48-3.19c-.16-1.19-1.68-1.55-2.87-1.68s-2.7-.71-2.64-1.91,1.65-1.74,1.89-2.9c.1-.49-.07-1,.15-1.49.34-.68,1.32-.71,1.88-1.21,1-.9.23-2.59.52-3.92.21-1,1-1.69,1.22-2.62a3.44,3.44,0,0,0-1.32-3.35,1,1,0,0,0-.5-.33A2.74,2.74,0,0,1,374,223a3.06,3.06,0,0,1-1.11-2.37,2.26,2.26,0,0,1,.2-.88,3.15,3.15,0,0,0,.45-1.52,3.86,3.86,0,0,0-2.37,1.44,3.11,3.11,0,0,0-.47,2.88c.36,1,1.26,1.87.92,2.83s-1.6,1.12-2.4,1.74a3.07,3.07,0,0,0-.91,3.07,6.77,6.77,0,0,1,.3,1.58c-.09,1.64-2.14,2.36-3,3.74a5.94,5.94,0,0,0-.37,4,4.31,4.31,0,0,0,.52,1.81c.33.52.85.87,1.21,1.36a2.67,2.67,0,0,1,.2,2.66,4.64,4.64,0,0,1-2.08,1.86,2.93,2.93,0,0,0-1.46,2.35c-.11,1.8.92,2.2,2.32,2.81,1.12.48,1,.62,1,1.95,0,2.7.9,3.46,3.56,3a6.54,6.54,0,0,1,2.56-.21c1,.31.67.56.7,1.41.07,2.17,2.6,1.56,3.67.63,1.24-1.08,2.79-2.32,4.46-2.48a3.54,3.54,0,0,1,2,.35,17.86,17.86,0,0,1,3,2.12c.35.27.72.54,1.1.78l.05,0c.12.08.25.15.38.22l.17.08.27.13.23.1.24.09.25.08.28.07.22,0a3,3,0,0,0,.52.05,3.25,3.25,0,0,0,1.87-.52,2.59,2.59,0,0,0,.7-.66,2.13,2.13,0,0,0,.38-.87,2,2,0,0,1,.16-.65.77.77,0,0,1,.49-.33,1.15,1.15,0,0,1,.32,0,1.7,1.7,0,0,1,.31.06,5.73,5.73,0,0,1,1.07.62,3.67,3.67,0,0,0,1.05.42A5.92,5.92,0,0,0,398,259a11.43,11.43,0,0,0,1.17,0c.39,0,.77-.09,1.15-.15a5.72,5.72,0,0,0,1-.21,3,3,0,0,0,1.61-1,1.36,1.36,0,0,0,.26-.82,1.46,1.46,0,0,0-.1-.52Z" style="opacity:0.2"></path><path d="M377.74,234.48,385,248.84v-6.61l.74-28.15,1.07,28.15v4.45l8-13.92-8,17.08v43.63a.44.44,0,0,1-.27.37,1.44,1.44,0,0,1-1.28,0,.45.45,0,0,1-.26-.37v-41Z" style="fill:#37474f"></path></g><g id="freepik--Bush--inject-124"><path id="freepik--bush--inject-124" d="M380.82,296.88c2.07.33,3.93-.24,4.25-2.48a19.91,19.91,0,0,0,0-5.56c-.09-.67-.33-1.45-1-1.63a1.25,1.25,0,0,0-1.34.75,3.59,3.59,0,0,0-.22,1.63c-.33-.72-.82-1.56-1.62-1.58a1.48,1.48,0,0,0-1.32,1.49,4.28,4.28,0,0,0,.68,2.08,2.06,2.06,0,0,0-1.62.26,1.41,1.41,0,0,0-.06,1.83,4.18,4.18,0,0,0,1.63,1.17.73.73,0,0,0-1,.48,1.1,1.1,0,0,0,.43,1.11A2.27,2.27,0,0,0,380.82,296.88Z" style="fill:#455a64"></path><g id="freepik--bush--inject-124"><path id="freepik--bush--inject-124" d="M384.42,297.77l4.95-2.86a3.91,3.91,0,0,0,1.08-1,2.8,2.8,0,0,0,.6-1.28.68.68,0,0,0-.05-.49c-.18-.26-.6-.17-.84,0a8.46,8.46,0,0,0-.67.67,7.64,7.64,0,0,0,.09-1.72.72.72,0,0,0-.21-.57.64.64,0,0,0-.69,0,3,3,0,0,0-1.15,1.83,6,6,0,0,0-.06-2.19c-.18-.78-1.07-1.09-1.38-.34a4.71,4.71,0,0,0-.26,1.25,5,5,0,0,0,.11,1.64,5.11,5.11,0,0,0-1.32-1.83.77.77,0,0,0-.76-.26c-.31.12-.37.53-.33.87a4.71,4.71,0,0,0,.67,2,4.22,4.22,0,0,0-1.67-.65.51.51,0,0,0-.53.17.71.71,0,0,0,.11.69,4.32,4.32,0,0,0,1.34,1.24,4.25,4.25,0,0,0-1.62-.17.53.53,0,0,0-.44.18c-.14.2,0,.48.2.66a5.23,5.23,0,0,0,1.16.69,1.57,1.57,0,0,0-.71.12.56.56,0,0,0-.34.58.7.7,0,0,0,.52.46A3.55,3.55,0,0,0,384.42,297.77Z" style="fill:#E11313"></path></g></g></g><g id="freepik--tree--inject-124"><g id="freepik--tree--inject-124"><path d="M156.4,251.72a3.54,3.54,0,0,0-2,.35,20.05,20.05,0,0,0-3.19,2.26,6.44,6.44,0,0,1-3.54,1.52,2.84,2.84,0,0,1-3-2,2,2,0,0,0-.16-.65,1,1,0,0,0-1.12-.29,5.73,5.73,0,0,0-1.07.62c-1.32.78-3,.6-4.49.38-1.27-.18-2.86-.74-2.85-2,0-.84.73-1.45,1.3-2s1-1.58.51-2.22a1.46,1.46,0,0,0-.73-.45c-1.58-.51-3.51.17-4.84-.82a2.78,2.78,0,0,1-.7-3.34,4.24,4.24,0,0,1,2.84-2.16c1.06-.27,2.41-.4,2.8-1.42s-.34-1.85-1.13-2.4a8.33,8.33,0,0,1-2.28-1.73,2.72,2.72,0,0,1-.07-2.82,3.42,3.42,0,0,1,2.38-1.63,5,5,0,0,0,1.44-.32,1,1,0,0,0,.53-1.21c-.14-.26-.44-.4-.61-.64a1.14,1.14,0,0,1,.42-1.5,6,6,0,0,1,1.61-.62c1.15-.38,1.74-1,1.4-2.14s-2-1.12-2.47-2.28.76-3.2,1.67-3.82a21.83,21.83,0,0,1,3-1.36,3.21,3.21,0,0,0,2.06-2.42c.09-1.13-.77-2.09-1.46-3s-1.29-2.16-.68-3.13,1.88-1,2.92-1.31a4.73,4.73,0,0,0,2.88-2.59c.27-.64.41-1.34.74-2,1-1.91,3.64-2.75,5.65-2.51a2.29,2.29,0,0,1,1.92,1.3,3.05,3.05,0,0,1,.7,1.32c.15.93-.33,2.1.54,2.81,1.32,1.07,3.34-.38,3.27,2a11.76,11.76,0,0,1-.35,2.7,2.71,2.71,0,0,0-.09.41,2.59,2.59,0,0,0-.06.92,2.08,2.08,0,0,0,1.32,1.43,17.31,17.31,0,0,0,3,.32,3.93,3.93,0,0,1,2.57,1.49,3.08,3.08,0,0,1,.47,2.88c-.36,1-1.26,1.87-.92,2.83s1.6,1.12,2.4,1.74a3.07,3.07,0,0,1,.91,3.07,6.77,6.77,0,0,0-.3,1.58c.09,1.64,2.14,2.36,3,3.74a5.94,5.94,0,0,1,.37,4,4.31,4.31,0,0,1-.52,1.81c-.33.52-.85.87-1.21,1.36a2.67,2.67,0,0,0-.2,2.66,4.64,4.64,0,0,0,2.08,1.86,2.93,2.93,0,0,1,1.46,2.35c.11,1.8-.92,2.2-2.32,2.81-1.12.48-1,.62-1,1.95,0,2.7-.9,3.46-3.55,3a6.6,6.6,0,0,0-2.57-.21c-1,.31-.67.56-.7,1.41-.07,2.17-2.6,1.56-3.67.63C159.62,253.12,158.07,251.88,156.4,251.72Z" style="fill:#E11313"></path><path d="M156.4,251.72a3.54,3.54,0,0,0-2,.35,20.05,20.05,0,0,0-3.19,2.26,6.44,6.44,0,0,1-3.54,1.52,2.84,2.84,0,0,1-3-2,2,2,0,0,0-.16-.65,1,1,0,0,0-1.12-.29,5.73,5.73,0,0,0-1.07.62c-1.32.78-3,.6-4.49.38-1.27-.18-2.86-.74-2.85-2,0-.84.73-1.45,1.3-2s1-1.58.51-2.22a1.46,1.46,0,0,0-.73-.45c-1.58-.51-3.51.17-4.84-.82a2.78,2.78,0,0,1-.7-3.34,4.24,4.24,0,0,1,2.84-2.16c1.06-.27,2.41-.4,2.8-1.42s-.34-1.85-1.13-2.4a8.33,8.33,0,0,1-2.28-1.73,2.72,2.72,0,0,1-.07-2.82,3.42,3.42,0,0,1,2.38-1.63,5,5,0,0,0,1.44-.32,1,1,0,0,0,.53-1.21c-.14-.26-.44-.4-.61-.64a1.14,1.14,0,0,1,.42-1.5,6,6,0,0,1,1.61-.62c1.15-.38,1.74-1,1.4-2.14s-2-1.12-2.47-2.28.76-3.2,1.67-3.82a21.83,21.83,0,0,1,3-1.36,3.21,3.21,0,0,0,2.06-2.42c.09-1.13-.77-2.09-1.46-3s-1.29-2.16-.68-3.13,1.88-1,2.92-1.31a4.73,4.73,0,0,0,2.88-2.59c.27-.64.41-1.34.74-2,1-1.91,3.64-2.75,5.65-2.51a2.29,2.29,0,0,1,1.92,1.3,3.05,3.05,0,0,1,.7,1.32c.15.93-.33,2.1.54,2.81,1.32,1.07,3.34-.38,3.27,2a11.76,11.76,0,0,1-.35,2.7,2.71,2.71,0,0,0-.09.41,2.59,2.59,0,0,0-.06.92,2.08,2.08,0,0,0,1.32,1.43,17.31,17.31,0,0,0,3,.32,3.93,3.93,0,0,1,2.57,1.49,3.08,3.08,0,0,1,.47,2.88c-.36,1-1.26,1.87-.92,2.83s1.6,1.12,2.4,1.74a3.07,3.07,0,0,1,.91,3.07,6.77,6.77,0,0,0-.3,1.58c.09,1.64,2.14,2.36,3,3.74a5.94,5.94,0,0,1,.37,4,4.31,4.31,0,0,1-.52,1.81c-.33.52-.85.87-1.21,1.36a2.67,2.67,0,0,0-.2,2.66,4.64,4.64,0,0,0,2.08,1.86,2.93,2.93,0,0,1,1.46,2.35c.11,1.8-.92,2.2-2.32,2.81-1.12.48-1,.62-1,1.95,0,2.7-.9,3.46-3.55,3a6.6,6.6,0,0,0-2.57-.21c-1,.31-.67.56-.7,1.41-.07,2.17-2.6,1.56-3.67.63C159.62,253.12,158.07,251.88,156.4,251.72Z" style="opacity:0.2"></path><path d="M135.26,251.12a3.5,3.5,0,0,1,.46-.65c.21-.23.44-.45.65-.67a3.19,3.19,0,0,0,.67-1.1,1.59,1.59,0,0,0,.06-.3,1.1,1.1,0,0,0-.07-.57.73.73,0,0,0-.15-.25,1.46,1.46,0,0,0-.73-.45,3.65,3.65,0,0,0-.55-.13l-.17,0-.44,0h-.15c-.47,0-.94,0-1.4,0h-.26l-.28,0-.3,0-.24,0h0a13.54,13.54,0,0,1,2.14-.33,6.09,6.09,0,0,1,4.63,1.83,4.18,4.18,0,0,0-.93,2.78c3,.81,6-3.22,8.83-2-.17,1.45,0,3.41,1.41,3.73a2.3,2.3,0,0,0,2.19-1.05c.52-.68.83-1.5,1.35-2.18a4.62,4.62,0,0,1,6.12-.89c.77.57,1.75,1.42,2.52.86s.33-2.24,1.25-2.7c.61-.31,1.47.18,2-.28a1.31,1.31,0,0,0,.35-.75c.36-1.53.68-3.31-.29-4.56s-2.68-1.79-2.48-3.19c.16-1.19,1.68-1.55,2.87-1.68s2.7-.71,2.64-1.91-1.65-1.74-1.88-2.9c-.11-.49.06-1-.16-1.49-.34-.68-1.32-.71-1.88-1.21-1-.9-.23-2.59-.52-3.92-.21-1-1-1.69-1.22-2.62a3.44,3.44,0,0,1,1.32-3.35,1,1,0,0,1,.5-.33,2.74,2.74,0,0,0,1.19-.57,3.06,3.06,0,0,0,1.11-2.37,2.26,2.26,0,0,0-.2-.88,3.15,3.15,0,0,1-.45-1.52,3.86,3.86,0,0,1,2.37,1.44,3.08,3.08,0,0,1,.47,2.88c-.36,1-1.26,1.87-.92,2.83s1.6,1.12,2.4,1.74a3.07,3.07,0,0,1,.91,3.07,6.77,6.77,0,0,0-.3,1.58c.09,1.64,2.14,2.36,3,3.74a5.88,5.88,0,0,1,.37,4,4.31,4.31,0,0,1-.52,1.81c-.33.52-.85.87-1.21,1.36a2.67,2.67,0,0,0-.2,2.66,4.64,4.64,0,0,0,2.08,1.86,2.93,2.93,0,0,1,1.46,2.35c.11,1.8-.92,2.2-2.32,2.81-1.12.48-1,.62-1,1.95,0,2.7-.9,3.46-3.55,3a6.6,6.6,0,0,0-2.57-.21c-1,.31-.67.56-.7,1.41-.07,2.17-2.6,1.56-3.67.63-1.24-1.08-2.79-2.32-4.46-2.48a3.54,3.54,0,0,0-2,.35,17.86,17.86,0,0,0-3,2.12c-.35.27-.72.54-1.1.78l0,0c-.12.08-.25.15-.38.22l-.16.08-.28.13-.23.1-.24.09-.25.08-.28.07-.22,0a3,3,0,0,1-.52,0,3.25,3.25,0,0,1-1.87-.52,2.59,2.59,0,0,1-.7-.66,2.13,2.13,0,0,1-.38-.87,2,2,0,0,0-.16-.65.77.77,0,0,0-.49-.33,1.15,1.15,0,0,0-.32,0,1.7,1.7,0,0,0-.31.06,5.73,5.73,0,0,0-1.07.62,3.67,3.67,0,0,1-1,.42,5.92,5.92,0,0,1-1.12.15,11.43,11.43,0,0,1-1.17,0c-.39,0-.77-.09-1.15-.15a5.72,5.72,0,0,1-1-.21,3,3,0,0,1-1.61-1,1.36,1.36,0,0,1-.26-.82,1.46,1.46,0,0,1,.1-.52Z" style="opacity:0.2"></path><path d="M160.54,229.54l-7.25,14.36v-6.61l-.73-28.15-1.08,28.15v4.45l-8-13.92,8,17.08V299a.45.45,0,0,0,.27.37,1.44,1.44,0,0,0,1.28,0,.46.46,0,0,0,.26-.37V247.56Z" style="fill:#37474f"></path></g><g id="freepik--bush--inject-124"><path id="freepik--bush--inject-124" d="M149.74,302.43c2.08.33,3.93-.24,4.25-2.48a19.91,19.91,0,0,0,0-5.56c-.09-.67-.33-1.46-1-1.63a1.24,1.24,0,0,0-1.33.75,3.6,3.6,0,0,0-.23,1.63c-.33-.72-.82-1.56-1.61-1.58a1.47,1.47,0,0,0-1.32,1.49,4.26,4.26,0,0,0,.67,2.08,2,2,0,0,0-1.61.25,1.41,1.41,0,0,0-.06,1.84,4.15,4.15,0,0,0,1.62,1.17.72.72,0,0,0-1,.48,1.09,1.09,0,0,0,.42,1.11A2.44,2.44,0,0,0,149.74,302.43Z" style="fill:#455a64"></path><g id="freepik--bush--inject-124"><path id="freepik--bush--inject-124" d="M153.34,303.31l4.95-2.86a4,4,0,0,0,1.08-1,2.8,2.8,0,0,0,.6-1.28.64.64,0,0,0-.05-.49c-.18-.26-.6-.17-.84,0s-.42.4-.67.67a7.65,7.65,0,0,0,.1-1.72.8.8,0,0,0-.21-.57.62.62,0,0,0-.69,0,2.9,2.9,0,0,0-1.15,1.83,6,6,0,0,0-.07-2.19c-.17-.78-1.07-1.09-1.37-.34a4,4,0,0,0-.26,1.24,5.07,5.07,0,0,0,.11,1.65,5.24,5.24,0,0,0-1.32-1.83.82.82,0,0,0-.77-.27c-.31.12-.36.54-.33.88a4.71,4.71,0,0,0,.67,2,4,4,0,0,0-1.67-.65.51.51,0,0,0-.53.17.69.69,0,0,0,.12.69,4,4,0,0,0,1.33,1.23,4.67,4.67,0,0,0-1.62-.17.6.6,0,0,0-.44.19c-.14.2,0,.48.21.65a4.51,4.51,0,0,0,1.16.69,1.91,1.91,0,0,0-.72.12.57.57,0,0,0-.34.59.71.71,0,0,0,.53.46A3.43,3.43,0,0,0,153.34,303.31Z" style="fill:#E11313"></path></g></g></g><g id="freepik--house--inject-124"><polygon points="296.75 350.9 206.9 299.04 206.9 172.24 286.76 218.33 286.76 275.97 296.75 281.74 296.75 350.9" style="fill:#e0e0e0"></polygon><polygon points="296.75 350.9 206.9 299.04 206.9 172.24 286.76 218.33 286.76 275.97 296.75 281.74 296.75 350.9" style="opacity:0.1"></polygon><polygon points="296.75 350.9 369.95 308.63 369.95 251 296.75 293.26 296.75 350.9" style="fill:#f5f5f5"></polygon><polygon points="286.76 216.77 286.76 275.97 349.66 239.62 350.01 180.26 286.76 216.77" style="fill:#f5f5f5"></polygon><polygon points="357.98 307.43 305.61 337.67 305.61 297.8 357.98 267.56 357.98 307.43" style="fill:#E11313"></polygon><g style="opacity:0.5"><polygon points="357.98 307.43 305.61 337.67 305.61 297.8 357.98 267.56 357.98 307.43" style="fill:#fff"></polygon></g><polygon points="311.66 334.17 324.72 326.63 357.98 273.72 357.98 267.56 350.99 271.6 311.66 334.17" style="fill:#fff"></polygon><polygon points="357.98 282.3 357.98 277.71 328.66 324.36 333.18 321.75 357.98 282.3" style="fill:#fff"></polygon><path d="M303.57,339.65V295.86l.35-.2,54.75-31.61v43.79l-.35.2Zm1.4-43v40.56L357.28,307V266.47Z" style="fill:#455a64"></path><rect x="300.12" y="288.45" width="62.01" height="1.39" transform="translate(-100.22 204.32) rotate(-30)" style="fill:#455a64"></rect><rect x="339.38" y="275.6" width="1.4" height="42.17" style="fill:#455a64"></rect><rect x="321.48" y="285.93" width="1.4" height="42.17" style="fill:#455a64"></rect><polygon points="349.31 239.02 296.94 269.26 296.94 229.39 349.31 199.15 349.31 239.02" style="fill:#E11313"></polygon><g style="opacity:0.5"><polygon points="349.31 239.02 296.94 269.26 296.94 229.39 349.31 199.15 349.31 239.02" style="fill:#fff"></polygon></g><polygon points="303 265.76 316.06 258.22 349.31 205.31 349.31 199.15 342.33 203.18 303 265.76" style="fill:#fff"></polygon><polygon points="349.31 213.88 349.31 209.3 320 255.95 324.52 253.34 349.31 213.88" style="fill:#fff"></polygon><path d="M294.91,271.23V227.45l.35-.2L350,195.64v43.78l-.35.2Zm1.4-43v40.56l52.31-30.2V198.06Z" style="fill:#455a64"></path><rect x="291.46" y="220.04" width="62.01" height="1.39" transform="matrix(0.87, -0.5, 0.5, 0.87, -67.17, 190.86)" style="fill:#455a64"></rect><rect x="330.71" y="207.18" width="1.4" height="42.17" style="fill:#455a64"></rect><rect x="312.81" y="217.52" width="1.4" height="42.17" style="fill:#455a64"></rect><polygon points="286.76 222.18 286.76 263.44 350.07 201 350.07 185.68 286.76 222.18" style="opacity:0.1"></polygon><polygon points="296.75 326.93 369.95 258.68 369.95 251 296.75 293.26 296.75 326.93" style="opacity:0.1"></polygon><polygon points="373.28 252.92 373.28 168.38 293.42 214.49 293.42 226.01 363.3 185.67 363.3 247.16 293.42 287.5 293.42 299.03 373.28 252.92" style="fill:#E11313"></polygon><polygon points="373.28 252.92 373.28 168.38 293.42 214.49 293.42 226.01 363.3 185.67 363.3 247.16 293.42 287.5 293.42 299.03 373.28 252.92" style="fill:#fff;opacity:0.4"></polygon><polygon points="373.28 168.38 280.11 114.59 200.25 160.7 293.42 214.49 373.28 168.38" style="fill:#E11313"></polygon><polygon points="373.28 168.38 280.11 114.59 200.25 160.7 293.42 214.49 373.28 168.38" style="fill:#fff;opacity:0.6000000000000001"></polygon><polygon points="280.11 118.44 280.11 126.12 359.97 172.23 366.61 168.38 280.11 118.44" style="fill:#E11313"></polygon><polygon points="280.11 118.44 280.11 126.12 359.97 172.23 366.61 168.38 280.11 118.44" style="fill:#fff;opacity:0.2"></polygon><polygon points="280.11 118.44 206.9 160.7 213.56 164.54 280.11 126.12 280.11 118.44" style="fill:#E11313"></polygon><polygon points="280.11 118.44 206.9 160.7 213.56 164.54 280.11 126.12 280.11 118.44" style="fill:#fff;opacity:0.4"></polygon><polygon points="213.56 164.54 293.42 210.65 359.97 172.23 280.11 126.12 213.56 164.54" style="fill:#fafafa"></polygon><polygon points="363.3 247.16 349.99 239.47 349.99 193.35 363.3 185.67 363.3 247.16" style="fill:#e0e0e0"></polygon><polygon points="349.99 239.47 286.76 275.97 276.78 270.21 270.13 274.05 293.42 287.5 363.3 247.16 349.99 239.47" style="fill:#fafafa"></polygon><polygon points="293.42 287.5 293.42 299.03 270.13 285.58 270.13 274.05 293.42 287.5" style="fill:#E11313"></polygon><polygon points="293.42 287.5 293.42 299.03 270.13 285.58 270.13 274.05 293.42 287.5" style="fill:#fff;opacity:0.2"></polygon><polygon points="293.42 226.01 200.25 172.23 200.25 160.7 293.42 214.49 293.42 226.01" style="fill:#E11313"></polygon><polygon points="293.42 226.01 200.25 172.23 200.25 160.7 293.42 214.49 293.42 226.01" style="fill:#fff;opacity:0.2"></polygon><path d="M293.42,284.3a.41.41,0,0,1-.41-.41V264.21l.2-.12,66.56-38.42a.4.4,0,0,1,.56.15.42.42,0,0,1-.15.56l-66.35,38.3v19.21A.41.41,0,0,1,293.42,284.3Z" style="fill:#455a64"></path><path d="M306.73,276.38a.41.41,0,0,1-.41-.41V256.76a.41.41,0,0,1,.82,0V276A.41.41,0,0,1,306.73,276.38Z" style="fill:#455a64"></path><path d="M320,268.7a.41.41,0,0,1-.41-.41V249.08a.41.41,0,1,1,.82,0v19.21A.41.41,0,0,1,320,268.7Z" style="fill:#455a64"></path><path d="M333.35,261a.41.41,0,0,1-.41-.41V241.38a.41.41,0,0,1,.82,0v19.21A.41.41,0,0,1,333.35,261Z" style="fill:#455a64"></path><path d="M346.66,253.33a.41.41,0,0,1-.41-.41V233.71a.41.41,0,0,1,.82,0v19.21A.41.41,0,0,1,346.66,253.33Z" style="fill:#455a64"></path><path d="M360,245.64a.41.41,0,0,1-.41-.41V226a.41.41,0,0,1,.82,0v19.21A.41.41,0,0,1,360,245.64Z" style="fill:#455a64"></path><path d="M293.42,284.3a.41.41,0,0,1-.41-.41V264.68l-66.35-38.3a.41.41,0,0,1-.14-.56.39.39,0,0,1,.55-.15l66.76,38.54v19.68A.41.41,0,0,1,293.42,284.3Z" style="fill:#455a64"></path><path d="M280.11,276.38a.41.41,0,0,1-.41-.41V256.76a.41.41,0,0,1,.82,0V276A.41.41,0,0,1,280.11,276.38Z" style="fill:#455a64"></path><path d="M266.8,268.7h0a.41.41,0,0,1-.41-.41V249.08a.41.41,0,0,1,.41-.41h0a.41.41,0,0,1,.41.41v19.21A.41.41,0,0,1,266.8,268.7Z" style="fill:#455a64"></path><path d="M253.49,261h0a.41.41,0,0,1-.41-.41V241.38a.41.41,0,0,1,.41-.41h0a.41.41,0,0,1,.41.41v19.21A.41.41,0,0,1,253.49,261Z" style="fill:#455a64"></path><path d="M240.18,253.33h0a.41.41,0,0,1-.41-.41V233.71a.41.41,0,0,1,.41-.41h0a.41.41,0,0,1,.41.41v19.21A.41.41,0,0,1,240.18,253.33Z" style="fill:#455a64"></path><path d="M226.87,245.64h0a.41.41,0,0,1-.41-.41V226a.41.41,0,0,1,.41-.41h0a.41.41,0,0,1,.41.41v19.21A.41.41,0,0,1,226.87,245.64Z" style="fill:#455a64"></path><polygon points="243.51 358.61 276.78 339.37 276.78 289.42 270.13 285.58 270.13 274.05 276.78 270.21 276.78 231.78 243.51 250.99 243.51 358.61" style="fill:#f5f5f5"></polygon><polygon points="276.78 231.78 206.9 191.43 173.63 210.64 243.51 250.99 276.78 231.78" style="fill:#fafafa"></polygon><polygon points="173.63 210.64 173.63 318.24 243.51 358.61 243.51 250.99 173.63 210.64" style="fill:#e0e0e0"></polygon><polygon points="173.63 210.64 173.63 318.24 243.51 358.61 243.51 250.99 173.63 210.64" style="opacity:0.1"></polygon><polygon points="258.38 310.03 258.38 342.74 262.82 340.17 262.82 307.46 258.38 310.03" style="fill:#E11313"></polygon><polygon points="258.38 310.03 258.38 342.74 262.82 340.17 262.82 307.46 258.38 310.03" style="fill:#fff;opacity:0.5"></polygon><polygon points="258.38 326.8 258.38 336.19 262.82 329.11 262.82 319.73 258.38 326.8" style="fill:#fff"></polygon><polygon points="258.38 339.01 258.38 342.26 262.82 335.19 262.82 331.94 258.38 339.01" style="fill:#fff"></polygon><path d="M256.17,344.82V308.87l7.95-4.59v36Zm1.39-35.14v32.73l5.17-3V306.69Z" style="fill:#455a64"></path><path d="M251.83,351.57V307.13l16.63-9.6V342Zm1.39-43.63v41.22l13.85-8V299.94Z" style="fill:#455a64"></path><polygon points="276.78 285.29 243.51 334.85 243.51 297.11 276.78 277.89 276.78 285.29" style="opacity:0.1"></polygon><polygon points="272.35 342.74 254.5 353.05 254.5 356.06 272.35 345.75 272.35 342.74" style="fill:#f5f5f5"></polygon><polygon points="251.22 351.12 254.5 353.05 272.35 342.74 269.07 340.81 251.22 351.12" style="fill:#fafafa"></polygon><polygon points="303.52 363.76 272.35 345.77 254.5 356.08 285.66 374.07 303.52 363.76" style="fill:#fafafa"></polygon><polygon points="251.22 354.13 254.5 356.06 254.5 353.05 251.22 351.12 251.22 354.13" style="fill:#e0e0e0"></polygon><polygon points="247.76 243.48 279 225.44 279 288.46 247.76 306.5 247.76 243.48" style="fill:#f5f5f5"></polygon><polygon points="254.4 252.37 254.4 292.24 272.35 281.88 272.35 242.01 254.4 252.37" style="fill:#E11313"></polygon><polygon points="254.4 252.37 254.4 292.24 272.35 281.88 272.35 242.01 254.4 252.37" style="fill:#fff;opacity:0.5"></polygon><polygon points="254.4 281.58 254.4 292.24 256.95 290.76 272.35 266.27 272.35 253.03 254.4 281.58" style="fill:#fff"></polygon><polygon points="272.35 270.26 260.89 288.49 265.41 285.88 272.35 274.85 272.35 270.26" style="fill:#fff"></polygon><path d="M253.71,293.44V249.66l19.34-11.16v43.78Zm1.39-43V291l16.55-9.56V240.91Z" style="fill:#455a64"></path><rect x="253.02" y="252.58" width="20.72" height="1.39" transform="translate(-91.34 165.57) rotate(-29.99)" style="fill:#455a64"></rect><polygon points="247.76 306.5 165.94 259.36 165.78 196.25 247.76 243.48 247.76 306.5" style="fill:#e0e0e0"></polygon><polygon points="279 225.44 247.76 243.48 165.78 196.25 199.13 177.04 279 225.44" style="fill:#fafafa"></polygon><polygon points="199.13 177.04 214.24 186.19 199.05 177.69 165.78 196.25 199.13 177.04" style="fill:#e0e0e0"></polygon></g><g id="freepik--Fence--inject-124"><polygon id="freepik--shadow--inject-124" points="150.18 314.05 209.79 348.46 211.21 347.63 151.6 313.22 150.18 314.05" style="fill:#E11313;opacity:0.30000000000000004"></polygon><g id="freepik--fence--inject-124"><polygon points="206.65 346.31 206.65 324.44 205.03 321.1 203.38 322.56 203.38 344.43 206.65 346.31" style="fill:#E11313"></polygon><polygon points="206.65 346.31 206.65 324.44 205.03 321.1 203.38 322.56 203.38 344.43 206.65 346.31" style="fill:#fff;opacity:0.15"></polygon><polygon points="206.65 324.44 207.47 323.97 207.47 345.84 206.65 346.31 206.65 324.44" style="fill:#E11313"></polygon><polygon points="206.65 324.44 207.47 323.97 207.47 345.84 206.65 346.31 206.65 324.44" style="opacity:0.2"></polygon><polygon points="205.03 321.1 205.85 320.61 207.47 323.97 206.65 324.44 205.03 321.1" style="fill:#E11313"></polygon><polygon points="194.54 339.35 194.54 317.48 192.92 314.14 191.27 315.6 191.27 337.47 194.54 339.35" style="fill:#E11313"></polygon><polygon points="194.54 339.35 194.54 317.48 192.92 314.14 191.27 315.6 191.27 337.47 194.54 339.35" style="fill:#fff;opacity:0.15"></polygon><polygon points="194.54 317.48 195.36 317.01 195.36 338.88 194.54 339.35 194.54 317.48" style="fill:#E11313"></polygon><polygon points="194.54 317.48 195.36 317.01 195.36 338.88 194.54 339.35 194.54 317.48" style="opacity:0.2"></polygon><polygon points="192.92 314.14 193.74 313.65 195.36 317.01 194.54 317.48 192.92 314.14" style="fill:#E11313"></polygon><polygon points="182.44 332.39 182.44 310.52 180.81 307.18 179.16 308.63 179.16 330.51 182.44 332.39" style="fill:#E11313"></polygon><polygon points="182.44 332.39 182.44 310.52 180.81 307.18 179.16 308.63 179.16 330.51 182.44 332.39" style="fill:#fff;opacity:0.15"></polygon><polygon points="182.44 310.52 183.25 310.05 183.25 331.92 182.44 332.39 182.44 310.52" style="fill:#E11313"></polygon><polygon points="182.44 310.52 183.25 310.05 183.25 331.92 182.44 332.39 182.44 310.52" style="opacity:0.2"></polygon><polygon points="180.81 307.18 181.63 306.69 183.25 310.05 182.44 310.52 180.81 307.18" style="fill:#E11313"></polygon><polygon points="170.33 325.43 170.33 303.56 168.71 300.22 167.05 301.68 167.05 323.55 170.33 325.43" style="fill:#E11313"></polygon><polygon points="170.33 325.43 170.33 303.56 168.71 300.22 167.05 301.68 167.05 323.55 170.33 325.43" style="fill:#fff;opacity:0.15"></polygon><polygon points="170.33 303.56 171.15 303.09 171.15 324.96 170.33 325.43 170.33 303.56" style="fill:#E11313"></polygon><polygon points="170.33 303.56 171.15 303.09 171.15 324.96 170.33 325.43 170.33 303.56" style="opacity:0.2"></polygon><polygon points="168.71 300.22 169.52 299.73 171.15 303.09 170.33 303.56 168.71 300.22" style="fill:#E11313"></polygon><polygon points="158.22 318.47 158.22 296.6 156.6 293.26 154.94 294.72 154.94 316.59 158.22 318.47" style="fill:#E11313"></polygon><polygon points="158.22 318.47 158.22 296.6 156.6 293.26 154.94 294.72 154.94 316.59 158.22 318.47" style="fill:#fff;opacity:0.15"></polygon><polygon points="158.22 296.6 159.04 296.13 159.04 318 158.22 318.47 158.22 296.6" style="fill:#E11313"></polygon><polygon points="158.22 296.6 159.04 296.13 159.04 318 158.22 318.47 158.22 296.6" style="opacity:0.2"></polygon><polygon points="156.6 293.26 157.41 292.77 159.04 296.13 158.22 296.6 156.6 293.26" style="fill:#E11313"></polygon><polygon points="210.36 341.46 151.47 307.63 151.47 308.91 210.36 342.75 210.36 341.46" style="fill:#E11313"></polygon><polygon points="210.36 341.46 151.47 307.63 151.47 308.91 210.36 342.75 210.36 341.46" style="fill:#fff;opacity:0.25"></polygon><polygon points="210.36 341.46 211.21 340.98 211.21 342.27 210.36 342.75 210.36 341.46" style="fill:#E11313"></polygon><polygon points="210.36 341.46 211.21 340.98 211.21 342.27 210.36 342.75 210.36 341.46" style="opacity:0.2"></polygon><polygon points="151.47 307.63 210.36 341.46 211.21 340.98 152.31 307.14 151.47 307.63" style="fill:#E11313"></polygon><polygon points="210.36 333.22 151.47 299.38 151.47 300.67 210.36 334.5 210.36 333.22" style="fill:#E11313"></polygon><polygon points="210.36 333.22 151.47 299.38 151.47 300.67 210.36 334.5 210.36 333.22" style="fill:#fff;opacity:0.25"></polygon><polygon points="210.36 333.22 211.21 332.73 211.21 334.02 210.36 334.5 210.36 333.22" style="fill:#E11313"></polygon><polygon points="210.36 333.22 211.21 332.73 211.21 334.02 210.36 334.5 210.36 333.22" style="opacity:0.2"></polygon><polygon points="151.47 299.38 210.36 333.22 211.21 332.73 152.31 298.89 151.47 299.38" style="fill:#E11313"></polygon></g></g></g></g></svg>